<svg xmlns="http://www.w3.org/2000/svg" version="1.0" width="1024.000000pt" height="1024.000000pt" viewBox="0 0 1024.000000 1024.000000" preserveAspectRatio="xMidYMid meet">
<rect width="100%" height="100%" fill="#FFFFFF"/>
<g transform="translate(0.000000,1024.000000) scale(0.100000,-0.100000)" fill="#0c6435" stroke="none">
<path d="M4975 7549 c-610 -50 -1167 -374 -1498 -871 -67 -100 -163 -291 -202 -398 -38 -107 -73 -257 -90 -388 -21 -162 -22 -1562 -1 -1733 56 -449 260 -860 577 -1164 283 -271 603 -440 989 -523 116 -25 142 -26 375 -27 284 0 346 8 567 76 504 155 929 519 1171 1004 91 182 134 311 184 555 14 63 17 200 20 875 3 560 1 834 -7 914 -43 424 -248 829 -581 1146 -263 251 -601 427 -962 500 -106 21 -360 48 -422 44 -11 -1 -65 -5 -120 -10z m272 -209 c309 -24 579 -115 841 -286 340 -221 595 -563 706 -946 57 -197 59 -232 63 -1013 3 -483 1 -758 -7 -835 -55 -573 -338 -1042 -810 -1345 -199 -128 -474 -228 -685 -250 -33 -3 -79 -8 -103 -11 l-43 -5 3 338 c4 334 4 339 31 426 35 114 91 212 132 231 16 8 65 28 107 45 222 88 410 205 557 346 201 194 337 417 401 661 24 92 41 227 33 267 -5 26 -8 27 -68 27 -132 0 -325 -50 -470 -123 -287 -143 -524 -406 -614 -681 -17 -50 -46 -165 -66 -256 -20 -90 -38 -167 -41 -169 -2 -2 -4 328 -4 735 l0 739 84 22 c287 74 551 292 689 568 70 140 115 361 104 508 -10 131 -4 124 -105 115 -179 -14 -358 -96 -492 -224 l-36 -34 -11 98 c-29 241 -149 496 -282 602 l-39 30 -57 -52 c-99 -90 -172 -216 -224 -383 -31 -102 -57 -256 -47 -281 9 -24 -4 -16 -62 37 -132 121 -302 195 -488 214 -41 4 -74 3 -77 -2 -3 -5 -11 -49 -17 -97 -35 -286 94 -624 322 -842 133 -127 293 -217 456 -257 l92 -22 1 -555 c0 -305 2 -580 4 -610 5 -65 0 -55 -45 85 -57 177 -147 327 -282 470 -200 211 -446 336 -740 375 -46 6 -104 10 -128 8 l-45 -3 2 -85 c3 -176 96 -420 221 -587 81 -107 230 -246 345 -323 122 -82 300 -167 470 -226 149 -51 146 -48 178 -141 17 -51 19 -91 19 -521 l1 -466 -53 3 c-115 5 -323 53 -462 107 -234 90 -430 218 -612 399 -224 221 -354 440 -439 736 -67 232 -68 245 -72 1057 -4 611 -2 756 11 865 69 594 414 1077 961 1342 229 112 434 163 740 184 11 0 79 -4 152 -9z"/>
</g>
</svg>