<?xml version="1.0" standalone="no"?>
<!DOCTYPE svg PUBLIC "-//W3C//DTD SVG 20010904//EN"
 "http://www.w3.org/TR/2001/REC-SVG-20010904/DTD/svg10.dtd">
<svg version="1.0" xmlns="http://www.w3.org/2000/svg"
 width="1024.000000pt" height="520.000000pt" viewBox="0 0 1024.000000 520.000000"
 preserveAspectRatio="xMidYMid meet">
<rect width="100%" height="100%" fill="#FFFFFF"/>
<g transform="translate(0.000000,520.000000) scale(0.100000,-0.100000)"
fill="#0c6435" stroke="none">
<path d="M2348 4709 c-237 -28 -488 -128 -688 -277 -224 -165 -421 -446 -509
-724 -56 -176 -61 -259 -61 -963 0 -395 4 -673 11 -737 33 -305 158 -555 399
-799 161 -163 296 -256 476 -328 96 -39 231 -78 298 -86 228 -29 329 -32 499
-11 262 33 503 147 722 342 190 170 311 347 408 599 83 218 90 306 84 1116 -5
713 -6 718 -66 898 -38 113 -73 183 -150 298 -139 208 -359 406 -581 524 -240
128 -546 181 -842 148z m369 -160 c127 -17 221 -47 348 -109 273 -133 444
-288 594 -538 76 -128 122 -249 157 -422 4 -19 9 -322 11 -672 5 -747 2 -789
-74 -997 -74 -204 -130 -302 -263 -457 -102 -119 -243 -230 -375 -296 -135
-68 -266 -104 -477 -132 l-38 -5 0 372 0 372 47 84 c26 46 52 85 58 86 5 2 43
11 82 20 224 51 424 187 557 379 103 148 129 211 171 407 14 66 25 122 25 126
0 12 -158 -7 -253 -31 -183 -47 -304 -123 -424 -266 -102 -121 -160 -246 -184
-396 -10 -66 -61 -204 -75 -204 -2 0 -4 254 -4 565 l0 564 38 7 c75 14 173 54
244 99 236 151 372 402 381 705 l2 85 -38 3 c-45 4 -192 -31 -264 -64 -58 -25
-134 -74 -175 -111 l-26 -25 -5 29 c-3 15 -9 46 -12 68 -17 103 -108 292 -175
363 -48 49 -71 44 -125 -32 -74 -104 -155 -309 -155 -392 0 -21 -6 -19 -67 28
-105 79 -258 137 -371 141 l-57 2 1 -91 c6 -379 246 -703 592 -795 l82 -22 0
-485 c0 -267 -3 -483 -6 -480 -3 4 -12 39 -21 80 -31 151 -102 284 -218 407
-106 112 -210 180 -336 220 -124 39 -339 65 -353 42 -6 -10 34 -163 65 -246
25 -69 67 -146 120 -225 165 -245 420 -404 677 -422 25 -2 37 -10 52 -36 19
-32 20 -53 20 -478 l0 -444 -47 0 c-27 0 -82 7 -123 14 -251 49 -470 167 -661
356 -193 191 -316 409 -372 659 -21 93 -21 117 -22 701 0 333 3 655 7 715 16
246 116 493 286 707 196 245 522 427 837 467 102 12 252 13 342 0z"/>
<path d="M5078 3222 l-78 -3 0 -484 0 -485 225 0 225 0 0 75 0 75 -145 0 -145
0 -2 413 -3 412 -77 -3z"/>
<path d="M5810 3220 l-94 -5 -8 -35 c-15 -67 -97 -437 -152 -682 -31 -136 -56
-249 -56 -250 0 -2 36 -3 80 -3 44 0 80 0 80 0 0 0 11 50 23 110 l23 110 107
3 c104 3 107 2 112 -20 3 -13 14 -61 23 -108 l18 -85 81 -3 81 -3 -14 63 c-8
35 -57 254 -109 487 -52 233 -96 424 -97 425 -2 1 -46 -1 -98 -4z m50 -440
c17 -79 30 -146 30 -151 0 -5 -34 -9 -75 -9 -60 0 -75 3 -75 15 0 14 53 272
66 325 7 25 7 25 15 -7 5 -17 23 -95 39 -173z"/>
<path d="M6298 3222 l-68 -3 0 -487 0 -487 65 0 65 0 0 300 0 300 96 -205 c52
-113 113 -246 136 -297 l40 -91 69 -4 69 -3 0 490 0 490 -65 -3 -65 -4 -1
-281 0 -282 -29 60 c-15 33 -74 159 -129 280 -56 121 -105 222 -109 225 -4 3
-37 4 -74 2z"/>
<path d="M7143 3223 l-263 -3 0 -75 0 -75 90 0 90 0 0 -412 0 -413 80 3 80 4
0 409 0 409 95 0 95 0 0 80 c0 44 -1 79 -2 78 -2 -2 -121 -4 -265 -5z"/>
<path d="M7577 3222 l-78 -3 3 -392 c3 -388 3 -393 27 -444 48 -107 146 -161
274 -150 85 7 164 43 201 92 54 71 56 85 56 509 l0 391 -75 -3 -75 -4 0 -356
c0 -221 -4 -372 -11 -395 -13 -48 -37 -73 -87 -88 -35 -10 -45 -9 -79 7 -67
33 -67 35 -73 459 l-5 380 -78 -3z"/>
<path d="M8368 3222 l-148 -3 0 -487 0 -487 80 3 80 4 0 184 0 184 38 0 38 0
66 -182 66 -183 91 -5 c50 -3 91 -5 91 -4 0 0 -34 89 -75 198 -41 109 -75 202
-75 208 0 5 19 29 43 51 64 63 81 106 85 215 3 72 0 105 -14 140 -34 90 -92
141 -181 159 -21 5 -104 7 -185 5z m159 -159 c41 -19 63 -67 63 -138 0 -102
-55 -155 -159 -155 l-51 0 0 160 0 160 58 -6 c31 -4 71 -13 89 -21z"/>
<path d="M9098 3222 l-218 -2 0 -488 0 -487 227 2 228 2 0 73 0 73 -153 3
-153 3 3 130 3 131 120 1 120 2 3 73 3 72 -126 0 -125 0 0 130 0 129 146 3
146 3 0 73 c0 40 -1 74 -3 75 -2 1 -102 1 -221 -1z"/>
<path d="M4360 2733 l0 -488 80 0 80 0 0 178 0 177 73 0 c106 0 168 22 227 78
64 62 84 128 78 256 -5 104 -33 173 -89 220 -62 52 -91 59 -276 64 l-173 4 0
-489z m319 320 c45 -34 63 -80 58 -154 -7 -111 -48 -153 -159 -165 l-58 -7 0
178 0 178 66 -6 c43 -3 76 -12 93 -24z"/>
</g>
</svg>
